<svg xmlns="http://www.w3.org/2000/svg" xmlns:xlink="http://www.w3.org/1999/xlink" id="Layer_1" x="0" y="0" version="1.1" viewBox="0 0 40 40" xml:space="preserve" style="enable-background:new 0 0 40 40"><style type="text/css">.st4{fill:#fff}.st10{fill:#0a61fe}.st13{fill:none;stroke:#0a61fe;stroke-miterlimit:10}</style><g><g><polygon points="4.6 32.4 6.1 30.9 5.5 30.3 26.9 8.9 27.3 9.4 34.2 5.6 35.8 7.1 31.9 13.9 32.3 14.4 11 35.7 10.3 35 8.8 36.5" class="st4"/><path d="M34.1,6.2l1,1l-3.5,6.2L31.2,14l0.4,0.4L11,35l-0.7-0.7L9.6,35l-0.8,0.8l-3.4-3.4l0.8-0.8l0.7-0.7l-0.6-0.6 L26.9,9.6l0.4,0.4l0.7-0.4L34.1,6.2 M34.3,4.9l-6.9,3.9l-0.6-0.6L4.8,30.3l0.6,0.6l-1.5,1.5l4.8,4.8l1.5-1.5l0.7,0.7L33,14.4 l-0.5-0.5L36.4,7L34.3,4.9L34.3,4.9z" class="st10"/></g><line x1="32.6" x2="28.5" y1="14.8" y2="10.8" class="st13"/><line x1="11.5" x2="9.2" y1="35.9" y2="33.7" class="st13"/><polygon points="32.7 11.4 29.7 8.4 34.2 5.5 35.9 7.2" class="st10"/><rect width="8.3" height="2.6" x="6.8" y="29" class="st10" transform="matrix(0.7071 0.7071 -0.7071 0.7071 24.6051 1.1417)"/></g><g><g><polygon points="30 35.1 29.3 35.7 8 14.4 8.5 13.9 4.6 7.1 6.2 5.5 13 9.4 13.4 8.9 34.8 30.3 34.1 31 35.6 32.5 31.5 36.6" class="st4"/><path d="M6.3,6.1l6.2,3.5l0.7,0.4l0.4-0.4l20.6,20.6L33.4,31l0.7,0.7l0.8,0.8l-3.4,3.4l-0.8-0.8L30,34.4L29.3,35 L8.7,14.4L9.1,14l-0.4-0.7L5.2,7.1L6.3,6.1 M6.1,4.9L4,7l3.9,6.9l-0.6,0.6l22.1,22.1l0.6-0.6l1.5,1.5l4.8-4.8L34.8,31l0.7-0.7 L13.4,8.2l-0.5,0.5L6.1,4.9L6.1,4.9z" class="st10"/></g><line x1="13.9" x2="9.8" y1="8.7" y2="12.8" class="st13"/><line x1="35" x2="32.7" y1="29.8" y2="32.1" class="st13"/><rect width="8.4" height="3.6" x="21.9" y="25.4" class="st10" transform="matrix(0.7071 -0.7071 0.7071 0.7071 -11.556 26.4475)"/><rect width="8.5" height="2.6" x="25" y="29.1" class="st10" transform="matrix(0.7071 -0.7071 0.7071 0.7071 -12.8686 29.6164)"/><polygon points="10.7 8.3 7.3 11.6 4.6 7.3 6.3 5.6" class="st10"/></g><rect width="4.7" height="7.3" x="13.4" y="21.9" class="st10" transform="matrix(-0.7071 0.7071 -0.7071 -0.7071 44.8943 32.4814)"/></svg>