<svg xmlns="http://www.w3.org/2000/svg" xmlns:xlink="http://www.w3.org/1999/xlink" id="Layer_1" x="0" y="0" version="1.1" viewBox="0 0 40 40" xml:space="preserve" style="enable-background:new 0 0 40 40"><style type="text/css">.st4{fill:#fff}.st10{fill:#0a61fe}.st13,.st21{fill:none;stroke:#0a61fe;stroke-miterlimit:10}.st21{fill:#fff}</style><g><rect width="21.6" height="8.1" x="10.8" y="23" class="st4"/><path d="M32,23.5v7.1H11.3v-7.1H32 M33,22.5H10.3v9.1H33V22.5L33,22.5z" class="st10"/></g><line x1="31" x2="31" y1="31.3" y2="34.5" class="st13"/><g><circle cx="30.9" cy="36" r="1.1" class="st4"/><path d="M30.9,35.4c0.3,0,0.6,0.3,0.6,0.6s-0.3,0.6-0.6,0.6s-0.6-0.3-0.6-0.6S30.6,35.4,30.9,35.4 M30.9,34.4 c-0.9,0-1.6,0.7-1.6,1.6s0.7,1.6,1.6,1.6c0.9,0,1.6-0.7,1.6-1.6S31.8,34.4,30.9,34.4L30.9,34.4z" class="st10"/></g><g><g><circle cx="10.7" cy="31.1" r="5.1" class="st13"/></g><g><line x1="10.7" x2="10.7" y1="31.1" y2="36.3" class="st13"/><line x1="10.7" x2="14.3" y1="31.1" y2="34.8" class="st13"/><line x1="10.7" x2="15.8" y1="31.1" y2="31.1" class="st13"/><line x1="10.7" x2="14.3" y1="31.1" y2="27.5" class="st13"/><line x1="10.7" x2="10.7" y1="31.1" y2="26" class="st13"/><line x1="10.7" x2="7" y1="31.1" y2="27.5" class="st13"/><line x1="10.7" x2="5.5" y1="31.1" y2="31.1" class="st13"/><line x1="10.7" x2="7" y1="31.1" y2="34.8" class="st13"/></g></g><circle cx="10.7" cy="31.1" r="1.3" class="st21"/><rect width="25" height="1.3" x="9" y="21.7" class="st21" transform="matrix(-1 -7.295310e-14 7.295310e-14 -1 43.0246 44.6692)"/><g><path d="M31,13.4c-0.8,0-1.5-0.4-1.9-1.1l-0.4-0.8l-0.4,0.8c-0.4,0.7-1.1,1.1-1.9,1.1s-1.5-0.4-1.9-1.1L24,11.4 l-0.4,0.8c-0.4,0.7-1.1,1.1-1.9,1.1s-1.5-0.4-1.9-1.1l-0.4-0.8l-0.4,0.8c-0.4,0.7-1.1,1.1-1.9,1.1s-1.5-0.4-1.9-1.1l-0.4-0.8 l-0.4,0.8c-0.4,0.7-1.1,1.1-1.9,1.1c-1.2,0-2.1-1-2.1-2.1c0-0.3,0-0.5,0.1-0.7l1.3-6.9H31l1.9,6.7c0.2,0.4,0.2,0.7,0.2,1 C33.1,12.4,32.2,13.4,31,13.4z" class="st4"/><path d="M30.6,4.1l1.8,6.3l0,0.1l0,0.1c0.1,0.2,0.2,0.5,0.2,0.7c0,0.9-0.7,1.6-1.6,1.6c-0.6,0-1.2-0.3-1.4-0.9 l-0.9-1.7L27.8,12c-0.3,0.5-0.8,0.9-1.4,0.9s-1.2-0.3-1.4-0.9L24,10.3L23.1,12c-0.3,0.5-0.8,0.9-1.4,0.9s-1.2-0.3-1.4-0.9l-0.9-1.7 L18.5,12c-0.3,0.5-0.8,0.9-1.4,0.9s-1.2-0.3-1.4-0.9l-0.9-1.7L13.9,12c-0.3,0.5-0.8,0.9-1.4,0.9c-0.9,0-1.6-0.7-1.6-1.6 c0-0.2,0-0.4,0.1-0.6l0-0.1l0-0.1l1.2-6.5H30.6 M31.3,3.1h-20L10,10.3c-0.1,0.3-0.2,0.6-0.2,0.9c0,1.4,1.2,2.6,2.6,2.6 c1,0,1.9-0.6,2.3-1.4c0.4,0.8,1.3,1.4,2.3,1.4c1,0,1.9-0.6,2.3-1.4c0.4,0.8,1.3,1.4,2.3,1.4c1,0,1.9-0.6,2.3-1.4 c0.4,0.8,1.3,1.4,2.3,1.4c1,0,1.9-0.6,2.3-1.4c0.4,0.8,1.3,1.4,2.3,1.4c1.4,0,2.6-1.2,2.6-2.6c0-0.4-0.1-0.8-0.3-1.2L31.3,3.1 L31.3,3.1z" class="st10"/></g><line x1="10.1" x2="32.9" y1="10.3" y2="10.3" class="st13"/><line x1="15.8" x2="14.7" y1="3.3" y2="10.4" class="st13"/><line x1="19.4" x2="19.8" y1="10.4" y2="3.6" class="st13"/><line x1="23.9" x2="23.4" y1="10.3" y2="3.3" class="st13"/><line x1="28.9" x2="27.8" y1="10.4" y2="3.4" class="st13"/><line x1="12.6" x2="12.6" y1="21.5" y2="13.7" class="st13"/><line x1="31.2" x2="31.2" y1="21.5" y2="13.7" class="st13"/><g><path d="M14.7,11.3c0,1.3-1,2.3-2.3,2.3s-2.3-1-2.3-2.3c0-1.5,1.1-1,2.4-1C15,10.3,14.7,9.8,14.7,11.3z" class="st10"/></g><g><path d="M24,11.3c0,1.3-1,2.3-2.3,2.3c-1.3,0-2.3-1-2.3-2.3c0-1.5-0.1-1,2.4-1C24.3,10.3,24,9.8,24,11.3z" class="st10"/></g><g><path d="M33.3,11.3c0,1.3-1,2.3-2.3,2.3c-1.3,0-2.3-1-2.3-2.3c0-1.5-0.2-1,2.4-1C33.6,10.3,33.3,9.8,33.3,11.3z" class="st10"/></g><polygon points="11.8 3.6 10.5 10.3 14.8 10.2 15.9 3.5" class="st10"/><polygon points="31.4 3.6 33 10.2 28.7 10.2 27.6 3.5" class="st10"/><rect width="4" height="7" x="19.7" y="3.3" class="st10"/><path d="M10.6,25.1c-3.4,0-6.1,2.7-6.1,6.1s2.7,6.1,6.1,6.1s6.1-2.7,6.1-6.1S14,25.1,10.6,25.1z M10.6,35.9	c-2.6,0-4.6-2.1-4.6-4.6s2.1-4.6,4.6-4.6s4.6,2.1,4.6,4.6S13.2,35.9,10.6,35.9z" class="st21"/></svg>