<svg xmlns="http://www.w3.org/2000/svg" xmlns:xlink="http://www.w3.org/1999/xlink" style="enable-background:new 0 0 40 40" id="Layer_1" x="0" y="0" version="1.1" viewBox="0 0 40 40" xml:space="preserve"><style type="text/css">.st0{fill:#fff}.st1{fill:#cbcbcb}.st2,.st3,.st4{stroke:#cbcbcb;stroke-miterlimit:10}.st2{fill:none;stroke-width:2}.st3{fill:#cbcbcb}.st4{fill:none;stroke-width:3}</style><rect width="30.5" height="19.5" x="4.8" y="6" class="st0"/><path d="M34.2,7v17.5H5.8V7H34.2 M36.2,5H3.8v21.5h32.5L36.2,5L36.2,5z" class="st1"/><line x1="4.2" x2="36.1" y1="15.8" y2="15.7" class="st2"/><g><circle cx="31.2" cy="10.3" r="1.5" class="st3"/></g><g><circle cx="31.2" cy="21" r="1.5" class="st3"/></g><rect width="8.5" height=".5" x="7.4" y="31.9" class="st3"/><g id="XMLID_8_"><g><polygon points="24.3 32.2 15.9 32.2 15.9 30.1 20.1 30.1 24.3 30.1" class="st3"/><rect width="8.5" height="2.1" x="15.9" y="32.2" class="st3"/></g><g><polyline points="15.9 32.2 15.9 30.1 20.1 30.1 24.3 30.1 24.3 32.2" class="st3"/><rect width="8.5" height="2.1" x="15.9" y="32.2" class="st3"/></g></g><polygon points="20.3 30.1 19.8 30.1 19.8 26.3 20.4 26.3" class="st3"/><rect width="8.5" height=".5" x="24.3" y="31.9" class="st3"/><line x1="7.8" x2="21.1" y1="10.3" y2="10.3" class="st4"/><line x1="7.8" x2="21.1" y1="21" y2="21" class="st4"/></svg>