<svg xmlns="http://www.w3.org/2000/svg" xmlns:xlink="http://www.w3.org/1999/xlink" id="Layer_1" x="0" y="0" version="1.1" viewBox="0 0 40 40" xml:space="preserve" style="enable-background:new 0 0 40 40"><style type="text/css">.st4{fill:#fff}.st10{fill:#0a61fe}</style><g><rect width="15" height="31.3" x="17" y="4.1" class="st4"/><path d="M31.5,4.6v30.3h-14V4.6H31.5 M32.5,3.6h-16v32.3h16V3.6L32.5,3.6z" class="st10"/></g><g><rect width="8.5" height="21.3" x="7.9" y="14.1" class="st4"/><path d="M16,14.6v20.3H8.4V14.6H16 M17,13.6H7.4v22.3H17V13.6L17,13.6z" class="st10"/></g><rect width="29.1" height="1.9" x="5.8" y="35" class="st10"/><rect width="7.1" height="1.4" x="9.5" y="16.2" class="st10"/><rect width="7.1" height="1.4" x="9.5" y="20.1" class="st10"/><rect width="7.1" height="1.4" x="9.5" y="23.9" class="st10"/><rect width="7.1" height="1.4" x="9.5" y="27.7" class="st10"/><rect width="7.1" height="1.4" x="9.5" y="31.6" class="st10"/><g><rect width="5.4" height="1.4" x="18.4" y="6.6" class="st10"/><rect width="5.4" height="1.4" x="24.6" y="6.6" class="st10"/></g><g><rect width="5.4" height="1.4" x="18.4" y="10" class="st10"/><rect width="5.4" height="1.4" x="24.6" y="10" class="st10"/></g><g><rect width="5.4" height="1.4" x="18.4" y="13.5" class="st10"/><rect width="5.4" height="1.4" x="24.6" y="13.5" class="st10"/></g><g><rect width="5.4" height="1.4" x="18.4" y="16.9" class="st10"/><rect width="5.4" height="1.4" x="24.6" y="16.9" class="st10"/></g><g><rect width="5.4" height="1.4" x="18.4" y="20.4" class="st10"/><rect width="5.4" height="1.4" x="24.6" y="20.4" class="st10"/></g><g><rect width="5.4" height="1.4" x="18.4" y="23.8" class="st10"/><rect width="5.4" height="1.4" x="24.6" y="23.8" class="st10"/></g><g><rect width="5.4" height="1.4" x="18.4" y="27.3" class="st10"/><rect width="5.4" height="1.4" x="24.6" y="27.3" class="st10"/></g><g><rect width="5.4" height="1.4" x="18.4" y="30.8" class="st10"/><rect width="5.4" height="1.4" x="24.6" y="30.8" class="st10"/></g></svg>