<svg xmlns="http://www.w3.org/2000/svg" xmlns:xlink="http://www.w3.org/1999/xlink" style="enable-background:new 0 0 40 40" id="Layer_1" x="0" y="0" version="1.1" viewBox="0 0 40 40" xml:space="preserve"><style type="text/css">.st4{fill:#fff}.st10{fill:#0a61fe}.st21,.st22{fill:#fff}.st21,.st22,.st23,.st24{stroke:#0a61fe;stroke-miterlimit:10}.st22{stroke-width:.5}.st23{fill:none;stroke-width:.9086}.st24{fill:#0a61fe;stroke-width:.5}</style><polygon points="11.6 14.3 5.2 14.3 19 31.2 12.2 14.3" class="st22"/><polygon points="9.4 7.6 5.3 13.7 11.9 13.7" class="st21"/><polygon points="14.9 11.3 14.8 11.3 19.2 7.3 9.9 7.3 12.5 13.5" class="st21"/><g id="XMLID_11_"><g><polygon points="29.4 13.6 31.2 14.3 29.4 15 28.7 16.8 28 15 26.2 14.3 28 13.6 28.7 11.8" class="st10"/><path d="M31.2,14.3l-1.8-0.7l-0.7-1.8L28,13.6l-1.8,0.7L28,15l0.7,1.8l0.7-1.8L31.2,14.3z M33,14.3h1.8L21.5,30.6 c-0.1,0.1-0.3,0-0.2-0.1l4.8-11.7l-0.5-0.2L20,32.1l-7.2-17.8h10.5h0.4v-0.6h-0.4H13.1L20,7.4l4.9,4.5l0.4-0.4l-0.2-0.2v0 l-4.4-4.1h9.3L29.4,9l0.5,0.2l0.6-1.6l4.1,6.1H33V14.3z" class="st4"/></g><g><path d="M34.8,14.3H33v-0.6h1.7l-4.1-6.1l-0.6,1.6L29.4,9l0.7-1.7h-9.3l4.4,4.1v0l0.2,0.2l-0.4,0.4L20,7.4l-6.9,6.3 h10.2h0.4v0.6h-0.4H12.8L20,32.1l5.5-13.6l0.5,0.2l-4.8,11.7c0,0.1,0.1,0.2,0.2,0.1L34.8,14.3z" class="st23"/><polygon points="26.2 14.3 28 13.6 28.7 11.8 29.4 13.6 31.2 14.3 29.4 15 28.7 16.8 28 15" class="st23"/></g></g><path d="M30.7,6.7h-9.9h-1.6H9.3l-5,7.4L20,33.3l15.7-19.2L30.7,6.7z M19.2,7.3l-4.4,4.1l0,0l-2.4,2.2L9.9,7.3H19.2z M9.4,7.6l2.5,6.2H5.3L9.4,7.6z M5.2,14.3h6.4h0.5L19,31.2L5.2,14.3z M13.1,13.7L20,7.4l4.9,4.5l0.4-0.4l-0.2-0.2l0,0l-4.4-4.1h9.3	L29.4,9l0.5,0.2l0.7-1.6l4.1,6.2H33v0.6h1.8L21,31.2l5.1-12.5l-0.5-0.2L20,32.1l-7.2-17.8" class="st24"/></svg>